<?xml version="1.0" encoding="UTF-8"?><svg id="Layer_1" xmlns="http://www.w3.org/2000/svg" width=".97in" height=".95in" viewBox="0 0 70.09 68.33"><path d="M61.03,44.4c1.21-2.88,1.95-6.01,2.12-9.28l6.94-4.1-2.36-10.33-8.04-.68c-1.55-2.8-3.56-5.31-5.93-7.42l1.12-8L45.34,0l-5.54,5.85c-1.55-.27-3.14-.4-4.76-.4s-3.21.14-4.76.4L24.74,0l-9.54,4.6,1.12,7.99s0,0,0,0c-2.37,2.12-4.38,4.63-5.93,7.43l-8.03.68L0,31.03l6.94,4.1c.17,3.27.91,6.4,2.12,9.28h0s-4.47,6.7-4.47,6.7l6.6,8.28,7.54-2.87s0,0,0,0c2.57,1.83,5.46,3.24,8.56,4.14,0,0,0,0,0,0l2.45,7.67h10.59l2.45-7.67c3.11-.89,6-2.3,8.57-4.14,0,0,0,0,0,0l7.54,2.87,6.6-8.28-4.48-6.71s0,0,0,0Z" fill="#fe1001"/><path d="M35.04,50.61c-9.4,0-17.02-7.62-17.02-17.02s7.62-17.02,17.02-17.02,17.02,7.62,17.02,17.02-7.62,17.02-17.02,17.02Z" fill="#115ff4"/></svg>